<svg width="16" height="16" viewBox="0 0 16 16" fill="none" xmlns="http://www.w3.org/2000/svg">
<path d="M6.16667 4.66667C6.44281 4.66667 6.66667 4.89053 6.66667 5.16667C6.66667 5.41771 6.48166 5.62554 6.24055 5.66125L6.16667 5.66667H4.66667C3.378 5.66667 2.33333 6.71134 2.33333 8C2.33333 9.24265 3.30471 10.2584 4.52956 10.3294L4.66667 10.3333H6.16667C6.44281 10.3333 6.66667 10.5572 6.66667 10.8333C6.66667 11.0844 6.48166 11.2922 6.24055 11.3279L6.16667 11.3333H4.66667C2.82572 11.3333 1.33333 9.84095 1.33333 8C1.33333 6.21484 2.73664 4.75744 4.5003 4.67075L4.66667 4.66667H6.16667ZM11.3333 4.66667C13.1743 4.66667 14.6667 6.15906 14.6667 8C14.6667 9.78517 13.2634 11.2426 11.4997 11.3293L11.3333 11.3333H9.83333C9.55719 11.3333 9.33333 11.1095 9.33333 10.8333C9.33333 10.5823 9.51834 10.3745 9.75945 10.3388L9.83333 10.3333H11.3333C12.622 10.3333 13.6667 9.28867 13.6667 8C13.6667 6.75736 12.6953 5.7416 11.4704 5.67063L11.3333 5.66667H9.83333C9.55719 5.66667 9.33333 5.44281 9.33333 5.16667C9.33333 4.91563 9.51834 4.70781 9.75945 4.67209L9.83333 4.66667H11.3333ZM4.66667 7.50001H11.3333C11.6095 7.50001 11.8333 7.72386 11.8333 8C11.8333 8.25314 11.6452 8.46233 11.4012 8.49544L11.3333 8.5H4.66667C4.39052 8.5 4.16667 8.27615 4.16667 8C4.16667 7.74687 4.35477 7.53768 4.59882 7.50457L4.66667 7.50001H11.3333H4.66667Z" fill="#1A8CFF"/>
</svg>
