<svg width="16" height="16" viewBox="0 0 16 16" fill="none" xmlns="http://www.w3.org/2000/svg">
<path d="M11.8361 9.33327C12.6641 9.33327 13.3354 10.0045 13.3354 10.8325V11.4448C13.3354 11.8271 13.2159 12.1998 12.9937 12.5108C11.9631 13.9529 10.2802 14.6674 8.00001 14.6674C5.71936 14.6674 4.03739 13.9526 3.00928 12.5097C2.78797 12.1991 2.66904 11.8272 2.66904 11.4458V10.8325C2.66904 10.0045 3.34027 9.33327 4.16829 9.33327H11.8361ZM8.00001 1.33641C9.84096 1.33641 11.3333 2.82879 11.3333 4.66974C11.3333 6.51069 9.84096 8.00308 8.00001 8.00308C6.15906 8.00308 4.66668 6.51069 4.66668 4.66974C4.66668 2.82879 6.15906 1.33641 8.00001 1.33641Z" fill="#AFAFAF"/>
<path d="M11.8361 9.33327C12.6641 9.33327 13.3354 10.0045 13.3354 10.8325V11.4448C13.3354 11.8271 13.2159 12.1998 12.9937 12.5108C11.9631 13.9529 10.2802 14.6674 8.00001 14.6674C5.71936 14.6674 4.03739 13.9526 3.00928 12.5097C2.78797 12.1991 2.66904 11.8272 2.66904 11.4458V10.8325C2.66904 10.0045 3.34027 9.33327 4.16829 9.33327H11.8361ZM8.00001 1.33641C9.84096 1.33641 11.3333 2.82879 11.3333 4.66974C11.3333 6.51069 9.84096 8.00308 8.00001 8.00308C6.15906 8.00308 4.66668 6.51069 4.66668 4.66974C4.66668 2.82879 6.15906 1.33641 8.00001 1.33641Z" fill="black" fill-opacity="0.7" style="mix-blend-mode:hue"/>
<path d="M11.8361 9.33327C12.6641 9.33327 13.3354 10.0045 13.3354 10.8325V11.4448C13.3354 11.8271 13.2159 12.1998 12.9937 12.5108C11.9631 13.9529 10.2802 14.6674 8.00001 14.6674C5.71936 14.6674 4.03739 13.9526 3.00928 12.5097C2.78797 12.1991 2.66904 11.8272 2.66904 11.4458V10.8325C2.66904 10.0045 3.34027 9.33327 4.16829 9.33327H11.8361ZM8.00001 1.33641C9.84096 1.33641 11.3333 2.82879 11.3333 4.66974C11.3333 6.51069 9.84096 8.00308 8.00001 8.00308C6.15906 8.00308 4.66668 6.51069 4.66668 4.66974C4.66668 2.82879 6.15906 1.33641 8.00001 1.33641Z" fill="white" fill-opacity="0.16"/>
</svg>
